<svg width="204" height="204" viewBox="0 0 204 204" fill="none" xmlns="http://www.w3.org/2000/svg">
<g opacity="0.5">
<path d="M28 3C28 4.65685 26.6569 6 25 6C23.3431 6 22 4.65685 22 3C22 1.34315 23.3431 0 25 0C26.6569 0 28 1.34315 28 3Z" fill="#FC5A5A"/>
<path d="M6 3C6 4.65685 4.65685 6 3 6C1.34315 6 0 4.65685 0 3C0 1.34315 1.34315 0 3 0C4.65685 0 6 1.34315 6 3Z" fill="#FC5A5A"/>
<path d="M50 3C50 4.65685 48.6569 6 47 6C45.3431 6 44 4.65685 44 3C44 1.34315 45.3431 0 47 0C48.6569 0 50 1.34315 50 3Z" fill="#FC5A5A"/>
<path d="M72 3C72 4.65685 70.6569 6 69 6C67.3431 6 66 4.65685 66 3C66 1.34315 67.3431 0 69 0C70.6569 0 72 1.34315 72 3Z" fill="#FC5A5A"/>
<path d="M94 3C94 4.65685 92.6569 6 91 6C89.3431 6 88 4.65685 88 3C88 1.34315 89.3431 0 91 0C92.6569 0 94 1.34315 94 3Z" fill="#FC5A5A"/>
<path d="M116 3C116 4.65685 114.657 6 113 6C111.343 6 110 4.65685 110 3C110 1.34315 111.343 0 113 0C114.657 0 116 1.34315 116 3Z" fill="#FC5A5A"/>
<path d="M138 3C138 4.65685 136.657 6 135 6C133.343 6 132 4.65685 132 3C132 1.34315 133.343 0 135 0C136.657 0 138 1.34315 138 3Z" fill="#FC5A5A"/>
<path d="M160 3C160 4.65685 158.657 6 157 6C155.343 6 154 4.65685 154 3C154 1.34315 155.343 0 157 0C158.657 0 160 1.34315 160 3Z" fill="#FC5A5A"/>
<path d="M182 3C182 4.65685 180.657 6 179 6C177.343 6 176 4.65685 176 3C176 1.34315 177.343 0 179 0C180.657 0 182 1.34315 182 3Z" fill="#FC5A5A"/>
<path d="M204 3C204 4.65685 202.657 6 201 6C199.343 6 198 4.65685 198 3C198 1.34315 199.343 0 201 0C202.657 0 204 1.34315 204 3Z" fill="#FC5A5A"/>
<path d="M28 25C28 26.6569 26.6569 28 25 28C23.3431 28 22 26.6569 22 25C22 23.3431 23.3431 22 25 22C26.6569 22 28 23.3431 28 25Z" fill="#FC5A5A"/>
<path d="M6 25C6 26.6569 4.65685 28 3 28C1.34315 28 0 26.6569 0 25C0 23.3431 1.34315 22 3 22C4.65685 22 6 23.3431 6 25Z" fill="#FC5A5A"/>
<path d="M50 25C50 26.6569 48.6569 28 47 28C45.3431 28 44 26.6569 44 25C44 23.3431 45.3431 22 47 22C48.6569 22 50 23.3431 50 25Z" fill="#FC5A5A"/>
<path d="M72 25C72 26.6569 70.6569 28 69 28C67.3431 28 66 26.6569 66 25C66 23.3431 67.3431 22 69 22C70.6569 22 72 23.3431 72 25Z" fill="#FC5A5A"/>
<path d="M94 25C94 26.6569 92.6569 28 91 28C89.3431 28 88 26.6569 88 25C88 23.3431 89.3431 22 91 22C92.6569 22 94 23.3431 94 25Z" fill="#FC5A5A"/>
<path d="M116 25C116 26.6569 114.657 28 113 28C111.343 28 110 26.6569 110 25C110 23.3431 111.343 22 113 22C114.657 22 116 23.3431 116 25Z" fill="#FC5A5A"/>
<path d="M138 25C138 26.6569 136.657 28 135 28C133.343 28 132 26.6569 132 25C132 23.3431 133.343 22 135 22C136.657 22 138 23.3431 138 25Z" fill="#FC5A5A"/>
<path d="M160 25C160 26.6569 158.657 28 157 28C155.343 28 154 26.6569 154 25C154 23.3431 155.343 22 157 22C158.657 22 160 23.3431 160 25Z" fill="#FC5A5A"/>
<path d="M182 25C182 26.6569 180.657 28 179 28C177.343 28 176 26.6569 176 25C176 23.3431 177.343 22 179 22C180.657 22 182 23.3431 182 25Z" fill="#FC5A5A"/>
<path d="M204 25C204 26.6569 202.657 28 201 28C199.343 28 198 26.6569 198 25C198 23.3431 199.343 22 201 22C202.657 22 204 23.3431 204 25Z" fill="#FC5A5A"/>
<path d="M28 47C28 48.6569 26.6569 50 25 50C23.3431 50 22 48.6569 22 47C22 45.3431 23.3431 44 25 44C26.6569 44 28 45.3431 28 47Z" fill="#FC5A5A"/>
<path d="M6 47C6 48.6569 4.65685 50 3 50C1.34315 50 0 48.6569 0 47C0 45.3431 1.34315 44 3 44C4.65685 44 6 45.3431 6 47Z" fill="#FC5A5A"/>
<path d="M28 69C28 70.6569 26.6569 72 25 72C23.3431 72 22 70.6569 22 69C22 67.3431 23.3431 66 25 66C26.6569 66 28 67.3431 28 69Z" fill="#FC5A5A"/>
<path d="M6 69C6 70.6569 4.65685 72 3 72C1.34315 72 0 70.6569 0 69C0 67.3431 1.34315 66 3 66C4.65685 66 6 67.3431 6 69Z" fill="#FC5A5A"/>
<path d="M28 91C28 92.6569 26.6569 94 25 94C23.3431 94 22 92.6569 22 91C22 89.3431 23.3431 88 25 88C26.6569 88 28 89.3431 28 91Z" fill="#FC5A5A"/>
<path d="M6 91C6 92.6569 4.65685 94 3 94C1.34315 94 0 92.6569 0 91C0 89.3431 1.34315 88 3 88C4.65685 88 6 89.3431 6 91Z" fill="#FC5A5A"/>
<path d="M28 113C28 114.657 26.6569 116 25 116C23.3431 116 22 114.657 22 113C22 111.343 23.3431 110 25 110C26.6569 110 28 111.343 28 113Z" fill="#FC5A5A"/>
<path d="M6 113C6 114.657 4.65685 116 3 116C1.34315 116 0 114.657 0 113C0 111.343 1.34315 110 3 110C4.65685 110 6 111.343 6 113Z" fill="#FC5A5A"/>
<path d="M28 135C28 136.657 26.6569 138 25 138C23.3431 138 22 136.657 22 135C22 133.343 23.3431 132 25 132C26.6569 132 28 133.343 28 135Z" fill="#FC5A5A"/>
<path d="M6 135C6 136.657 4.65685 138 3 138C1.34315 138 0 136.657 0 135C0 133.343 1.34315 132 3 132C4.65685 132 6 133.343 6 135Z" fill="#FC5A5A"/>
<path d="M28 157C28 158.657 26.6569 160 25 160C23.3431 160 22 158.657 22 157C22 155.343 23.3431 154 25 154C26.6569 154 28 155.343 28 157Z" fill="#FC5A5A"/>
<path d="M6 157C6 158.657 4.65685 160 3 160C1.34315 160 0 158.657 0 157C0 155.343 1.34315 154 3 154C4.65685 154 6 155.343 6 157Z" fill="#FC5A5A"/>
<path d="M28 179C28 180.657 26.6569 182 25 182C23.3431 182 22 180.657 22 179C22 177.343 23.3431 176 25 176C26.6569 176 28 177.343 28 179Z" fill="#FC5A5A"/>
<path d="M6 179C6 180.657 4.65685 182 3 182C1.34315 182 0 180.657 0 179C0 177.343 1.34315 176 3 176C4.65685 176 6 177.343 6 179Z" fill="#FC5A5A"/>
<path d="M28 201C28 202.657 26.6569 204 25 204C23.3431 204 22 202.657 22 201C22 199.343 23.3431 198 25 198C26.6569 198 28 199.343 28 201Z" fill="#FC5A5A"/>
<path d="M6 201C6 202.657 4.65685 204 3 204C1.34315 204 0 202.657 0 201C0 199.343 1.34315 198 3 198C4.65685 198 6 199.343 6 201Z" fill="#FC5A5A"/>
<path d="M50 47C50 48.6569 48.6569 50 47 50C45.3431 50 44 48.6569 44 47C44 45.3431 45.3431 44 47 44C48.6569 44 50 45.3431 50 47Z" fill="#FC5A5A"/>
<path d="M50 69C50 70.6569 48.6569 72 47 72C45.3431 72 44 70.6569 44 69C44 67.3431 45.3431 66 47 66C48.6569 66 50 67.3431 50 69Z" fill="#FC5A5A"/>
<path d="M50 91C50 92.6569 48.6569 94 47 94C45.3431 94 44 92.6569 44 91C44 89.3431 45.3431 88 47 88C48.6569 88 50 89.3431 50 91Z" fill="#FC5A5A"/>
<path d="M50 113C50 114.657 48.6569 116 47 116C45.3431 116 44 114.657 44 113C44 111.343 45.3431 110 47 110C48.6569 110 50 111.343 50 113Z" fill="#FC5A5A"/>
<path d="M50 135C50 136.657 48.6569 138 47 138C45.3431 138 44 136.657 44 135C44 133.343 45.3431 132 47 132C48.6569 132 50 133.343 50 135Z" fill="#FC5A5A"/>
<path d="M50 157C50 158.657 48.6569 160 47 160C45.3431 160 44 158.657 44 157C44 155.343 45.3431 154 47 154C48.6569 154 50 155.343 50 157Z" fill="#FC5A5A"/>
<path d="M50 179C50 180.657 48.6569 182 47 182C45.3431 182 44 180.657 44 179C44 177.343 45.3431 176 47 176C48.6569 176 50 177.343 50 179Z" fill="#FC5A5A"/>
<path d="M50 201C50 202.657 48.6569 204 47 204C45.3431 204 44 202.657 44 201C44 199.343 45.3431 198 47 198C48.6569 198 50 199.343 50 201Z" fill="#FC5A5A"/>
<path d="M72 47C72 48.6569 70.6569 50 69 50C67.3431 50 66 48.6569 66 47C66 45.3431 67.3431 44 69 44C70.6569 44 72 45.3431 72 47Z" fill="#FC5A5A"/>
<path d="M72 69C72 70.6569 70.6569 72 69 72C67.3431 72 66 70.6569 66 69C66 67.3431 67.3431 66 69 66C70.6569 66 72 67.3431 72 69Z" fill="#FC5A5A"/>
<path d="M72 91C72 92.6569 70.6569 94 69 94C67.3431 94 66 92.6569 66 91C66 89.3431 67.3431 88 69 88C70.6569 88 72 89.3431 72 91Z" fill="#FC5A5A"/>
<path d="M72 113C72 114.657 70.6569 116 69 116C67.3431 116 66 114.657 66 113C66 111.343 67.3431 110 69 110C70.6569 110 72 111.343 72 113Z" fill="#FC5A5A"/>
<path d="M72 135C72 136.657 70.6569 138 69 138C67.3431 138 66 136.657 66 135C66 133.343 67.3431 132 69 132C70.6569 132 72 133.343 72 135Z" fill="#FC5A5A"/>
<path d="M72 157C72 158.657 70.6569 160 69 160C67.3431 160 66 158.657 66 157C66 155.343 67.3431 154 69 154C70.6569 154 72 155.343 72 157Z" fill="#FC5A5A"/>
<path d="M72 179C72 180.657 70.6569 182 69 182C67.3431 182 66 180.657 66 179C66 177.343 67.3431 176 69 176C70.6569 176 72 177.343 72 179Z" fill="#FC5A5A"/>
<path d="M72 201C72 202.657 70.6569 204 69 204C67.3431 204 66 202.657 66 201C66 199.343 67.3431 198 69 198C70.6569 198 72 199.343 72 201Z" fill="#FC5A5A"/>
<path d="M94 47C94 48.6569 92.6569 50 91 50C89.3431 50 88 48.6569 88 47C88 45.3431 89.3431 44 91 44C92.6569 44 94 45.3431 94 47Z" fill="#FC5A5A"/>
<path d="M94 69C94 70.6569 92.6569 72 91 72C89.3431 72 88 70.6569 88 69C88 67.3431 89.3431 66 91 66C92.6569 66 94 67.3431 94 69Z" fill="#FC5A5A"/>
<path d="M94 91C94 92.6569 92.6569 94 91 94C89.3431 94 88 92.6569 88 91C88 89.3431 89.3431 88 91 88C92.6569 88 94 89.3431 94 91Z" fill="#FC5A5A"/>
<path d="M94 113C94 114.657 92.6569 116 91 116C89.3431 116 88 114.657 88 113C88 111.343 89.3431 110 91 110C92.6569 110 94 111.343 94 113Z" fill="#FC5A5A"/>
<path d="M94 135C94 136.657 92.6569 138 91 138C89.3431 138 88 136.657 88 135C88 133.343 89.3431 132 91 132C92.6569 132 94 133.343 94 135Z" fill="#FC5A5A"/>
<path d="M94 157C94 158.657 92.6569 160 91 160C89.3431 160 88 158.657 88 157C88 155.343 89.3431 154 91 154C92.6569 154 94 155.343 94 157Z" fill="#FC5A5A"/>
<path d="M94 179C94 180.657 92.6569 182 91 182C89.3431 182 88 180.657 88 179C88 177.343 89.3431 176 91 176C92.6569 176 94 177.343 94 179Z" fill="#FC5A5A"/>
<path d="M94 201C94 202.657 92.6569 204 91 204C89.3431 204 88 202.657 88 201C88 199.343 89.3431 198 91 198C92.6569 198 94 199.343 94 201Z" fill="#FC5A5A"/>
<path d="M116 47C116 48.6569 114.657 50 113 50C111.343 50 110 48.6569 110 47C110 45.3431 111.343 44 113 44C114.657 44 116 45.3431 116 47Z" fill="#FC5A5A"/>
<path d="M116 69C116 70.6569 114.657 72 113 72C111.343 72 110 70.6569 110 69C110 67.3431 111.343 66 113 66C114.657 66 116 67.3431 116 69Z" fill="#FC5A5A"/>
<path d="M116 91C116 92.6569 114.657 94 113 94C111.343 94 110 92.6569 110 91C110 89.3431 111.343 88 113 88C114.657 88 116 89.3431 116 91Z" fill="#FC5A5A"/>
<path d="M116 113C116 114.657 114.657 116 113 116C111.343 116 110 114.657 110 113C110 111.343 111.343 110 113 110C114.657 110 116 111.343 116 113Z" fill="#FC5A5A"/>
<path d="M116 135C116 136.657 114.657 138 113 138C111.343 138 110 136.657 110 135C110 133.343 111.343 132 113 132C114.657 132 116 133.343 116 135Z" fill="#FC5A5A"/>
<path d="M116 157C116 158.657 114.657 160 113 160C111.343 160 110 158.657 110 157C110 155.343 111.343 154 113 154C114.657 154 116 155.343 116 157Z" fill="#FC5A5A"/>
<path d="M116 179C116 180.657 114.657 182 113 182C111.343 182 110 180.657 110 179C110 177.343 111.343 176 113 176C114.657 176 116 177.343 116 179Z" fill="#FC5A5A"/>
<path d="M116 201C116 202.657 114.657 204 113 204C111.343 204 110 202.657 110 201C110 199.343 111.343 198 113 198C114.657 198 116 199.343 116 201Z" fill="#FC5A5A"/>
<path d="M138 47C138 48.6569 136.657 50 135 50C133.343 50 132 48.6569 132 47C132 45.3431 133.343 44 135 44C136.657 44 138 45.3431 138 47Z" fill="#FC5A5A"/>
<path d="M138 69C138 70.6569 136.657 72 135 72C133.343 72 132 70.6569 132 69C132 67.3431 133.343 66 135 66C136.657 66 138 67.3431 138 69Z" fill="#FC5A5A"/>
<path d="M138 91C138 92.6569 136.657 94 135 94C133.343 94 132 92.6569 132 91C132 89.3431 133.343 88 135 88C136.657 88 138 89.3431 138 91Z" fill="#FC5A5A"/>
<path d="M138 113C138 114.657 136.657 116 135 116C133.343 116 132 114.657 132 113C132 111.343 133.343 110 135 110C136.657 110 138 111.343 138 113Z" fill="#FC5A5A"/>
<path d="M138 135C138 136.657 136.657 138 135 138C133.343 138 132 136.657 132 135C132 133.343 133.343 132 135 132C136.657 132 138 133.343 138 135Z" fill="#FC5A5A"/>
<path d="M138 157C138 158.657 136.657 160 135 160C133.343 160 132 158.657 132 157C132 155.343 133.343 154 135 154C136.657 154 138 155.343 138 157Z" fill="#FC5A5A"/>
<path d="M138 179C138 180.657 136.657 182 135 182C133.343 182 132 180.657 132 179C132 177.343 133.343 176 135 176C136.657 176 138 177.343 138 179Z" fill="#FC5A5A"/>
<path d="M138 201C138 202.657 136.657 204 135 204C133.343 204 132 202.657 132 201C132 199.343 133.343 198 135 198C136.657 198 138 199.343 138 201Z" fill="#FC5A5A"/>
<path d="M160 47C160 48.6569 158.657 50 157 50C155.343 50 154 48.6569 154 47C154 45.3431 155.343 44 157 44C158.657 44 160 45.3431 160 47Z" fill="#FC5A5A"/>
<path d="M160 69C160 70.6569 158.657 72 157 72C155.343 72 154 70.6569 154 69C154 67.3431 155.343 66 157 66C158.657 66 160 67.3431 160 69Z" fill="#FC5A5A"/>
<path d="M160 91C160 92.6569 158.657 94 157 94C155.343 94 154 92.6569 154 91C154 89.3431 155.343 88 157 88C158.657 88 160 89.3431 160 91Z" fill="#FC5A5A"/>
<path d="M160 113C160 114.657 158.657 116 157 116C155.343 116 154 114.657 154 113C154 111.343 155.343 110 157 110C158.657 110 160 111.343 160 113Z" fill="#FC5A5A"/>
<path d="M160 135C160 136.657 158.657 138 157 138C155.343 138 154 136.657 154 135C154 133.343 155.343 132 157 132C158.657 132 160 133.343 160 135Z" fill="#FC5A5A"/>
<path d="M160 157C160 158.657 158.657 160 157 160C155.343 160 154 158.657 154 157C154 155.343 155.343 154 157 154C158.657 154 160 155.343 160 157Z" fill="#FC5A5A"/>
<path d="M160 179C160 180.657 158.657 182 157 182C155.343 182 154 180.657 154 179C154 177.343 155.343 176 157 176C158.657 176 160 177.343 160 179Z" fill="#FC5A5A"/>
<path d="M160 201C160 202.657 158.657 204 157 204C155.343 204 154 202.657 154 201C154 199.343 155.343 198 157 198C158.657 198 160 199.343 160 201Z" fill="#FC5A5A"/>
<path d="M182 47C182 48.6569 180.657 50 179 50C177.343 50 176 48.6569 176 47C176 45.3431 177.343 44 179 44C180.657 44 182 45.3431 182 47Z" fill="#FC5A5A"/>
<path d="M182 69C182 70.6569 180.657 72 179 72C177.343 72 176 70.6569 176 69C176 67.3431 177.343 66 179 66C180.657 66 182 67.3431 182 69Z" fill="#FC5A5A"/>
<path d="M182 91C182 92.6569 180.657 94 179 94C177.343 94 176 92.6569 176 91C176 89.3431 177.343 88 179 88C180.657 88 182 89.3431 182 91Z" fill="#FC5A5A"/>
<path d="M182 113C182 114.657 180.657 116 179 116C177.343 116 176 114.657 176 113C176 111.343 177.343 110 179 110C180.657 110 182 111.343 182 113Z" fill="#FC5A5A"/>
<path d="M182 135C182 136.657 180.657 138 179 138C177.343 138 176 136.657 176 135C176 133.343 177.343 132 179 132C180.657 132 182 133.343 182 135Z" fill="#FC5A5A"/>
<path d="M182 157C182 158.657 180.657 160 179 160C177.343 160 176 158.657 176 157C176 155.343 177.343 154 179 154C180.657 154 182 155.343 182 157Z" fill="#FC5A5A"/>
<path d="M182 179C182 180.657 180.657 182 179 182C177.343 182 176 180.657 176 179C176 177.343 177.343 176 179 176C180.657 176 182 177.343 182 179Z" fill="#FC5A5A"/>
<path d="M182 201C182 202.657 180.657 204 179 204C177.343 204 176 202.657 176 201C176 199.343 177.343 198 179 198C180.657 198 182 199.343 182 201Z" fill="#FC5A5A"/>
<path d="M204 47C204 48.6569 202.657 50 201 50C199.343 50 198 48.6569 198 47C198 45.3431 199.343 44 201 44C202.657 44 204 45.3431 204 47Z" fill="#FC5A5A"/>
<path d="M204 69C204 70.6569 202.657 72 201 72C199.343 72 198 70.6569 198 69C198 67.3431 199.343 66 201 66C202.657 66 204 67.3431 204 69Z" fill="#FC5A5A"/>
<path d="M204 91C204 92.6569 202.657 94 201 94C199.343 94 198 92.6569 198 91C198 89.3431 199.343 88 201 88C202.657 88 204 89.3431 204 91Z" fill="#FC5A5A"/>
<path d="M204 113C204 114.657 202.657 116 201 116C199.343 116 198 114.657 198 113C198 111.343 199.343 110 201 110C202.657 110 204 111.343 204 113Z" fill="#FC5A5A"/>
<path d="M204 135C204 136.657 202.657 138 201 138C199.343 138 198 136.657 198 135C198 133.343 199.343 132 201 132C202.657 132 204 133.343 204 135Z" fill="#FC5A5A"/>
<path d="M204 157C204 158.657 202.657 160 201 160C199.343 160 198 158.657 198 157C198 155.343 199.343 154 201 154C202.657 154 204 155.343 204 157Z" fill="#FC5A5A"/>
<path d="M204 179C204 180.657 202.657 182 201 182C199.343 182 198 180.657 198 179C198 177.343 199.343 176 201 176C202.657 176 204 177.343 204 179Z" fill="#FC5A5A"/>
<path d="M204 201C204 202.657 202.657 204 201 204C199.343 204 198 202.657 198 201C198 199.343 199.343 198 201 198C202.657 198 204 199.343 204 201Z" fill="#FC5A5A"/>
</g>
</svg>
